<svg width="1200" height="900" xmlns="http://www.w3.org/2000/svg"><rect x="40" y="40" width="260" height="130" fill="#f5f5f5" stroke="#333" stroke_width="1" /><text x="50" y="60" fill="#000" font_weight="bold">REGIONS</text><text x="50" y="78" fill="#000">region_name</text><text x="50" y="96" fill="#000">region_code</text><text x="50" y="114" fill="#000">region_capital</text><rect x="40" y="200" width="260" height="150" fill="#f5f5f5" stroke="#333" stroke_width="1" /><text x="50" y="220" fill="#000" font_weight="bold">DISTRICTS</text><text x="50" y="238" fill="#000">district_name</text><text x="50" y="256" fill="#000">district_code</text><text x="50" y="274" fill="#000">district_type</text><text x="50" y="292" fill="#000">capital</text><rect x="40" y="390" width="260" height="120" fill="#f5f5f5" stroke="#333" stroke_width="1" /><text x="50" y="410" fill="#000" font_weight="bold">COMMUNITIES</text><text x="50" y="428" fill="#000">community_code</text><text x="50" y="446" fill="#000">community_name</text><rect x="360" y="40" width="320" height="170" fill="#f5f5f5" stroke="#333" stroke_width="1" /><text x="370" y="60" fill="#000" font_weight="bold">INVESTMENTS</text><text x="370" y="78" fill="#000">name</text><text x="370" y="96" fill="#000">category</text><text x="370" y="114" fill="#000">amount</text><text x="370" y="132" fill="#000">status</text><text x="370" y="150" fill="#000">dates</text><rect x="360" y="250" width="320" height="140" fill="#f5f5f5" stroke="#333" stroke_width="1" /><text x="370" y="270" fill="#000" font_weight="bold">MAPPINGS</text><text x="370" y="288" fill="#000">latitude</text><text x="370" y="306" fill="#000">longitude</text><text x="370" y="324" fill="#000">partner</text><rect x="720" y="40" width="340" height="170" fill="#f5f5f5" stroke="#333" stroke_width="1" /><text x="730" y="60" fill="#000" font_weight="bold">RESEARCH CATALOGUE</text><text x="730" y="78" fill="#000">title</text><text x="730" y="96" fill="#000">thematic</text><text x="730" y="114" fill="#000">year</text><text x="730" y="132" fill="#000">authors</text><rect x="720" y="250" width="340" height="130" fill="#f5f5f5" stroke="#333" stroke_width="1" /><text x="730" y="270" fill="#000" font_weight="bold">INDICATORS</text><text x="730" y="288" fill="#000">indicator_id</text><text x="730" y="306" fill="#000">thematic</text><text x="730" y="324" fill="#000">description</text><rect x="360" y="430" width="260" height="120" fill="#f5f5f5" stroke="#333" stroke_width="1" /><text x="370" y="450" fill="#000" font_weight="bold">STAFF</text><text x="370" y="468" fill="#000">first_name</text><text x="370" y="486" fill="#000">last_name</text><text x="370" y="504" fill="#000">email</text><rect x="680" y="430" width="260" height="120" fill="#f5f5f5" stroke="#333" stroke_width="1" /><text x="690" y="450" fill="#000" font_weight="bold">USERS</text><text x="690" y="468" fill="#000">first_name</text><text x="690" y="486" fill="#000">last_name</text><text x="690" y="504" fill="#000">email</text></svg>